PathFileType	4	(X/Y/Z)	c:/Users/goper/Files/vsCode/490R/osim_files/A03/A03_Static03.trc
DataRate	CameraRate	NumFrames	NumMarkers	Units                	OrigDataRate	OrigDataStartFrame	OrigNumFrames
250.00	250.00	5	36	mm	250.0	748	1993
                Frame#	Time	LPSIS			LASIS			LTH1			LTH2			LTH3			LTH4			LLFE			LMFE			LSH1			LSH2			LSH3			LSH4			LLMAL			LMMAL			LCAL			LMTP5			LTOE			LMTP1			RPSIS			RASIS			RTH1			RTH2			RTH3			RTH4			RLFE			RMFE			RSH1			RSH2			RSH3			RSH4			RLMAL			RMMAL			RCAL			RMTP1			RTOE			RMTP5		
		X1	Y1	Z1	X2	Y2	Z2	X3	Y3	Z3	X4	Y4	Z4	X5	Y5	Z5	X6	Y6	Z6	X7	Y7	Z7	X8	Y8	Z8	X9	Y9	Z9	X10	Y10	Z10	X11	Y11	Z11	X12	Y12	Z12	X13	Y13	Z13	X14	Y14	Z14	X15	Y15	Z15	X16	Y16	Z16	X17	Y17	Z17	X18	Y18	Z18	X19	Y19	Z19	X20	Y20	Z20	X21	Y21	Z21	X22	Y22	Z22	X23	Y23	Z23	X24	Y24	Z24	X25	Y25	Z25	X26	Y26	Z26	X27	Y27	Z27	X28	Y28	Z28	X29	Y29	Z29	X30	Y30	Z30	X31	Y31	Z31	X32	Y32	Z32	X33	Y33	Z33	X34	Y34	Z34	X35	Y35	Z35	X36	Y36	Z36

748	2.98800	-347.31027	1051.87036	436.87024	-103.09489	992.44159	314.01672	-167.83763	646.21320	244.78915	-157.67323	603.84546	242.14890	-106.55994	651.51648	259.51257	-107.01434	607.74988	255.90642	-159.87189	557.94684	247.79205	-133.96669	530.51837	400.62149	-214.84801	477.97299	242.86026	-218.68555	429.68143	239.57149	-153.37233	464.57050	243.06296	-168.31306	419.02881	243.71951	-261.44998	105.16328	237.06927	-244.27077	104.40958	329.80780	-329.38739	85.15144	294.45844	-117.02447	41.46648	207.91321	-80.52151	68.87315	274.56091	-107.11966	48.23625	321.88089	-348.55994	1059.81042	515.69366	-103.87920	989.99481	619.27435	-204.41840	631.03656	691.34998	-198.67896	586.59509	689.56110	-143.43675	632.63440	695.88354	-144.02715	588.00195	693.79907	-177.66595	547.22552	682.97375	-118.50904	539.00769	570.17468	-236.32503	487.30856	679.87402	-246.59479	449.01401	695.28290	-178.35939	471.98001	695.79523	-197.59447	431.07584	708.54578	-277.98007	130.72217	689.33002	-233.79533	129.25786	612.86688	-333.79205	87.08379	637.21271	-120.66708	48.19440	609.99872	-93.72550	70.66724	660.39844	-129.79138	40.93908	728.77161
749	2.99200	-347.16089	1051.83777	436.85767	-102.98569	992.43622	314.04858	-167.81114	646.20380	244.83180	-157.62935	603.82263	242.18948	-106.52056	651.49548	259.53409	-106.95940	607.72681	255.91743	-159.82883	557.95929	247.82097	-133.93578	530.51038	400.66360	-214.81158	477.98990	242.88466	-218.70267	429.66919	239.60924	-153.37187	464.54156	243.07999	-168.31285	419.02325	243.74077	-261.44922	105.16134	237.05981	-244.28703	104.39649	329.80878	-329.39377	85.15070	294.46265	-117.01146	41.47566	207.90471	-80.59541	68.80788	274.60397	-107.13102	48.21851	321.89902	-348.43542	1059.81982	515.66980	-103.81852	989.96655	619.29065	-204.37920	631.03082	691.34296	-198.62173	586.57806	689.55853	-143.43874	632.60724	695.87738	-144.01466	587.99036	693.81940	-177.64227	547.22424	682.94861	-118.45399	539.02765	570.18250	-236.24516	487.24185	679.80524	-246.59929	448.96698	695.24347	-178.35159	471.97311	695.80170	-197.60909	431.05264	708.54095	-277.98453	130.70200	689.33984	-233.80460	129.25114	612.83868	-333.75507	87.03788	637.22223	-120.58775	48.17821	609.99799	-93.72295	70.66304	660.39343	-129.76955	40.94896	728.78815
750	2.99600	-347.09631	1051.87024	436.82996	-102.85650	992.39807	314.06613	-167.82994	646.01660	245.08165	-157.59952	603.82568	242.21541	-106.46773	651.47791	259.55548	-106.92229	607.71857	255.94916	-159.77846	557.96259	247.83574	-133.91727	530.49774	400.69675	-214.78876	477.98309	242.90909	-218.66731	429.68939	239.62791	-153.36255	464.53659	243.11034	-168.28140	418.99033	243.76822	-261.45358	105.15649	237.05984	-244.24969	104.39428	329.82178	-329.38162	85.15129	294.44296	-117.00346	41.46086	207.91185	-80.54617	68.84269	274.59085	-107.12377	48.22860	321.92615	-348.31311	1059.82886	515.66278	-103.76427	989.94525	619.30389	-204.40027	631.02490	691.31500	-198.62695	586.56946	689.55127	-143.43951	632.60645	695.89154	-144.01118	587.98456	693.83307	-177.64493	547.20551	682.95874	-118.42882	538.98938	570.19080	-236.29208	487.28674	679.85339	-246.60332	448.95657	695.22974	-178.36447	471.95892	695.78491	-197.62254	431.04837	708.52557	-277.97232	130.68591	689.31488	-233.79259	129.25894	612.86353	-333.77991	87.05302	637.21570	-120.59289	48.15740	610.00366	-93.72272	70.67511	660.41101	-129.76215	40.95915	728.81409
751	3.00000	-346.98172	1051.84131	436.80048	-102.74159	992.39728	314.07169	-167.70940	646.19818	244.86531	-157.58223	603.82373	242.23628	-106.41200	651.45154	259.58472	-106.87785	607.69281	255.98355	-159.75964	557.95215	247.87720	-133.87083	530.50806	400.70370	-214.77794	477.98688	242.92029	-218.62508	429.68521	239.63446	-153.33105	464.52145	243.12607	-168.24095	419.02036	243.79141	-261.44797	105.16823	237.06981	-244.28046	104.40752	329.82095	-329.37659	85.15051	294.46506	-117.00916	41.45518	207.91100	-80.52912	68.82283	274.59201	-107.11311	48.20906	321.90839	-348.23383	1059.84229	515.62378	-103.73531	989.93915	619.30603	-204.40323	631.02698	691.30121	-198.65469	586.55615	689.53308	-143.43607	632.58148	695.87836	-144.01283	587.96198	693.82971	-177.62253	547.22119	682.92322	-118.38482	538.98370	570.20911	-236.32570	487.27637	679.82532	-246.61378	448.96136	695.18945	-178.36404	471.94916	695.78369	-197.60153	431.05850	708.54059	-277.98880	130.68602	689.31342	-233.81639	129.23886	612.83643	-333.82687	87.07801	637.22473	-120.59309	48.16036	609.99915	-93.74476	70.64870	660.41870	-129.78468	40.93624	728.78888
752	3.00400	-346.89133	1051.84338	436.78647	-102.63692	992.36359	314.10315	-167.71080	646.18335	244.91170	-157.53508	603.82617	242.25800	-106.38234	651.43915	259.58295	-106.86341	607.67700	255.98378	-159.75050	557.93079	247.89404	-133.85030	530.50684	400.70840	-214.76021	477.98624	242.94235	-218.64622	429.68277	239.65526	-153.30550	464.52158	243.15828	-168.21263	418.98792	243.81334	-261.45523	105.15765	237.06290	-244.28922	104.46714	329.85886	-329.39481	85.13486	294.43945	-117.01716	41.44375	207.90794	-80.56423	68.82346	274.57010	-107.11133	48.24868	321.89267	-348.17773	1059.84961	515.60187	-103.65852	989.94922	619.32538	-204.40770	631.01996	691.26440	-198.67410	586.57666	689.51074	-143.42577	632.60583	695.90192	-143.99716	587.98047	693.82971	-177.66815	547.22742	682.93866	-118.33831	538.93762	570.21228	-236.31639	487.29266	679.80103	-246.64005	448.98322	695.16327	-178.34627	471.96216	695.78259	-197.60391	431.03757	708.52380	-278.01410	130.68111	689.26935	-233.81737	129.23036	612.83789	-333.81467	87.06306	637.18335	-120.58267	48.17230	609.98230	-93.74280	70.66819	660.37915	-129.78017	40.96508	728.79004
